<?xml version="1.0" encoding="UTF-8" standalone="no"?>
<svg
   shape-rendering="geometricPrecision"
   text-rendering="geometricPrecision"
   image-rendering="optimizeQuality"
   fill-rule="evenodd"
   clip-rule="evenodd"
   viewBox="0 0 640 640.00001"
   version="1.1"
   id="svg4"
   sodipodi:docname="close.svg"
   width="640"
   height="640"
   inkscape:version="1.1.2 (0a00cf5339, 2022-02-04)"
   xmlns:inkscape="http://www.inkscape.org/namespaces/inkscape"
   xmlns:sodipodi="http://sodipodi.sourceforge.net/DTD/sodipodi-0.dtd"
   xmlns="http://www.w3.org/2000/svg"
   xmlns:svg="http://www.w3.org/2000/svg">
  <defs
     id="defs8" />
  <sodipodi:namedview
     id="namedview6"
     pagecolor="#ffffff"
     bordercolor="#666666"
     borderopacity="1.0"
     inkscape:pageshadow="2"
     inkscape:pageopacity="0.0"
     inkscape:pagecheckerboard="0"
     showgrid="false"
     inkscape:zoom="1.4043243"
     inkscape:cx="256.35104"
     inkscape:cy="255.995"
     inkscape:window-width="2560"
     inkscape:window-height="1521"
     inkscape:window-x="0"
     inkscape:window-y="0"
     inkscape:window-maximized="1"
     inkscape:current-layer="svg4" />
  <circle
     style="fill:#ffffff;fill-opacity:1;stroke-width:2.64095"
     id="path937"
     cx="320"
     cy="320"
     r="256" />
  <path
     fill="#000000"
     fill-rule="nonzero"
     d="m 320,64 c 70.68,0 134.69,28.66056 181.01,74.98146 C 547.35,185.31237 576,249.31362 576,319.995 576,390.67638 547.34,454.68763 501.01,501.01854 454.69,547.33944 390.68,576 320,576 249.32,576 185.31,547.33944 138.98,501.01854 92.66,454.68763 64,390.67638 64,319.995 64,249.31362 92.65,185.31237 138.99,138.98146 185.31,92.66056 249.32,64 320,64 Z M 474.05,165.94199 C 434.64,126.53122 380.16,102.14074 320,102.14074 c -60.16,0 -114.64,24.39048 -154.05,63.80125 -39.42,39.42077 -63.81,93.89183 -63.81,154.05301 0,60.16117 24.39,114.64224 63.8,154.06301 39.42,39.41077 93.9,63.80125 154.06,63.80125 60.16,0 114.64,-24.39048 154.05,-63.80125 39.42,-39.42077 63.81,-93.90184 63.81,-154.06301 0,-60.16118 -24.39,-114.63224 -63.81,-154.05301 z"
     style="fill:#a2a2a2;stroke-width:1.00001"
     id="path2"
     sodipodi:nodetypes="scssscscssssscssss" />
  <g
     aria-label="x"
     id="text2580"
     style="font-size:400px;line-height:1.25">
    <path
       d="M 279.86328,317.46094 200.95703,210.625 h 74.02344 l 44.72656,64.84375 45.3125,-64.84375 h 74.02344 L 360.13672,317.07031 442.94922,429.375 H 368.92578 L 319.70703,360.23437 271.07422,429.375 h -74.02344 z"
       style="font-weight:bold;-inkscape-font-specification:'sans-serif Bold'"
       id="path26957" />
  </g>
</svg>
