<?xml version="1.0" encoding="UTF-8" standalone="no"?>
<svg
   shape-rendering="geometricPrecision"
   text-rendering="geometricPrecision"
   image-rendering="optimizeQuality"
   fill-rule="evenodd"
   clip-rule="evenodd"
   viewBox="0 0 640 640.00001"
   version="1.1"
   id="svg4"
   sodipodi:docname="close_red.svg"
   width="640"
   height="640"
   inkscape:version="1.1.2 (0a00cf5339, 2022-02-04)"
   xmlns:inkscape="http://www.inkscape.org/namespaces/inkscape"
   xmlns:sodipodi="http://sodipodi.sourceforge.net/DTD/sodipodi-0.dtd"
   xmlns="http://www.w3.org/2000/svg"
   xmlns:svg="http://www.w3.org/2000/svg">
  <defs
     id="defs8" />
  <sodipodi:namedview
     id="namedview6"
     pagecolor="#ffffff"
     bordercolor="#666666"
     borderopacity="1.0"
     inkscape:pageshadow="2"
     inkscape:pageopacity="0.0"
     inkscape:pagecheckerboard="0"
     showgrid="false"
     inkscape:zoom="1.4043243"
     inkscape:cx="143.84142"
     inkscape:cy="231.78407"
     inkscape:window-width="2560"
     inkscape:window-height="1521"
     inkscape:window-x="0"
     inkscape:window-y="0"
     inkscape:window-maximized="1"
     inkscape:current-layer="svg4" />
  <path
     style="fill:#fcb0b0;fill-opacity:1;stroke-width:0.721136"
     d="m 303.01328,539.35618 c -51.75256,-3.95987 -100.83419,-26.49391 -137.97406,-63.34575 -36.54482,-36.26141 -58.494,-82.05673 -64.23661,-134.02484 -1.198922,-10.84981 -1.026422,-35.26705 0.32881,-46.54191 5.97256,-49.68844 26.5059,-93.05763 60.91919,-128.66949 42.70163,-44.18888 102.73036,-68.541156 164.35288,-66.6742 38.97595,1.18085 73.8873,11.33559 107.13844,31.16359 52.80464,31.48796 91.31595,86.08567 102.80853,145.75228 3.28504,17.05513 3.68533,21.85282 3.64722,43.71359 -0.031,17.82393 -0.26872,22.37888 -1.61661,30.98354 -9.21146,58.80419 -39.39583,109.27611 -86.39911,144.46974 -42.54033,31.85201 -95.67493,47.25124 -148.96868,43.17345 z"
     id="path29188" />
  <path
     fill="#000000"
     fill-rule="nonzero"
     d="m 320,64.005 c 70.68,0 134.69,28.66 181.01,74.98 46.34,46.33 74.99,110.33 74.99,181.01 0,70.68 -28.66,134.69 -74.99,181.02 -46.32,46.32 -110.33,74.98 -181.01,74.98 -70.68,0 -134.69,-28.66 -181.02,-74.98 C 92.66,454.685 64,390.675 64,319.995 64,249.315 92.65,185.315 138.99,138.985 185.31,92.665 249.32,64.005 320,64.005 Z m 154.05,101.94 c -39.41,-39.41 -93.89,-63.8 -154.05,-63.8 -60.16,0 -114.64,24.39 -154.05,63.8 -39.42,39.42 -63.81,93.89 -63.81,154.05 0,60.16 24.39,114.64 63.8,154.06 39.42,39.41 93.9,63.8 154.06,63.8 60.16,0 114.64,-24.39 154.05,-63.8 39.42,-39.42 63.81,-93.9 63.81,-154.06 0,-60.16 -24.39,-114.63 -63.81,-154.05 z"
     style="fill:#a2a2a2"
     id="path2"
     sodipodi:nodetypes="scssscscssssscssss" />
  <g
     aria-label="x"
     id="text2580"
     style="font-size:400px;line-height:1.25">
    <path
       d="M 279.86328,317.46094 200.95703,210.625 h 74.02344 l 44.72656,64.84375 45.3125,-64.84375 h 74.02344 L 360.13672,317.07031 442.94922,429.375 H 368.92578 L 319.70703,360.23437 271.07422,429.375 h -74.02344 z"
       style="font-weight:bold;-inkscape-font-specification:'sans-serif Bold'"
       id="path26957" />
  </g>
</svg>
