<?xml version="1.0" encoding="UTF-8" standalone="no"?>
<svg
   version="1.1"
   id="Layer_1"
   x="0px"
   y="0px"
   viewBox="0 0 122.88 122.88"
   style="enable-background:new 0 0 122.88 122.88"
   xml:space="preserve"
   sodipodi:docname="edit.svg"
   inkscape:version="1.1.2 (0a00cf5339, 2022-02-04)"
   xmlns:inkscape="http://www.inkscape.org/namespaces/inkscape"
   xmlns:sodipodi="http://sodipodi.sourceforge.net/DTD/sodipodi-0.dtd"
   xmlns="http://www.w3.org/2000/svg"
   xmlns:svg="http://www.w3.org/2000/svg"><defs
     id="defs9" /><sodipodi:namedview
     id="namedview7"
     pagecolor="#ffffff"
     bordercolor="#666666"
     borderopacity="1.0"
     inkscape:pageshadow="2"
     inkscape:pageopacity="0.0"
     inkscape:pagecheckerboard="0"
     showgrid="false"
     inkscape:zoom="5.8512371"
     inkscape:cx="61.696355"
     inkscape:cy="61.098191"
     inkscape:window-width="2560"
     inkscape:window-height="1521"
     inkscape:window-x="0"
     inkscape:window-y="0"
     inkscape:window-maximized="1"
     inkscape:current-layer="Layer_1" /><g
     id="g4"><path
       style="fill:#ffd42a;stroke-width:0.187874"
       d="M 56.202499,122.66899 C 32.667968,120.68825 12.046211,105.08358 3.7532604,82.980179 2.1648243,78.746482 1.0816184,74.466603 0.33180153,69.461578 0.06062233,67.651458 -0.00456557,66.045657 2.4083003e-4,61.294091 0.00550383,56.090976 0.05750373,55.052292 0.43262983,52.657207 2.2217886,41.233886 6.4651272,31.547865 13.552278,22.709752 c 1.900246,-2.369722 6.00276,-6.543993 8.342256,-8.488166 9.36448,-7.782095 20.358805,-12.4564228 32.898049,-13.98687808 2.563993,-0.3129437 10.595226,-0.3129437 13.159219,0 C 80.179676,1.7271597 90.645327,6.071631 100.0039,13.540083 c 2.66494,2.126711 7.08462,6.535661 9.19198,9.169669 1.94486,2.430907 4.75104,6.592952 6.13973,9.106279 3.7638,6.811925 6.30161,14.813026 7.23578,22.812639 0.41108,3.520283 0.41157,10.027405 9.4e-4,13.5186 -1.67103,14.209486 -7.71741,26.70814 -17.76078,36.71382 -5.161173,5.14181 -10.293403,8.78278 -16.786974,11.90925 -9.866576,4.75046 -20.982503,6.81094 -31.822148,5.89865 z"
       id="path184"
       sodipodi:nodetypes="csssssssssssscsscc" /></g><path
     class="st0"
     d="m 79.320864,31.718516 c -0.73,-0.68 -1.57,-1.045 -2.51,-0.995 -0.94,0 -1.78,0.365 -2.46,1.1 l -5.545,5.755 15.535,15.015 5.595,-5.86 c 0.68,-0.68 0.94,-1.57 0.94,-2.51 0,-0.94 -0.365,-1.83 -1.045,-2.46 z m -26.59,53.789999 c -2.04,0.68 -4.13,1.31 -6.175,1.99 -2.04,0.68 -4.08,1.36 -6.175,2.04 -4.865,1.57 -7.535,2.46 -8.11,2.615 -0.575,0.155 -0.21,-2.09 0.995,-6.8 l 3.87,-14.805 0.32,-0.33 15.28,15.28 z m -9.62,-21.164999 21.495,-22.41 15.535,14.96 -21.755,22.724999 z"
     id="path4"
     style="clip-rule:evenodd;fill-rule:evenodd;stroke-width:0.5" /></svg>
