<?xml version="1.0" encoding="UTF-8" standalone="no"?>
<svg
   shape-rendering="geometricPrecision"
   text-rendering="geometricPrecision"
   image-rendering="optimizeQuality"
   fill-rule="evenodd"
   clip-rule="evenodd"
   viewBox="0 0 512 512"
   version="1.1"
   id="svg4"
   sodipodi:docname="ffw.svg"
   width="512"
   height="512"
   inkscape:version="1.1.2 (0a00cf5339, 2022-02-04)"
   xmlns:inkscape="http://www.inkscape.org/namespaces/inkscape"
   xmlns:sodipodi="http://sodipodi.sourceforge.net/DTD/sodipodi-0.dtd"
   xmlns="http://www.w3.org/2000/svg"
   xmlns:svg="http://www.w3.org/2000/svg">
  <defs
     id="defs8" />
  <sodipodi:namedview
     id="namedview6"
     pagecolor="#ffffff"
     bordercolor="#666666"
     borderopacity="1.0"
     inkscape:pageshadow="2"
     inkscape:pageopacity="0.0"
     inkscape:pagecheckerboard="0"
     showgrid="false"
     inkscape:zoom="0.92675031"
     inkscape:cx="255.73231"
     inkscape:cy="244.4024"
     inkscape:window-width="2560"
     inkscape:window-height="1521"
     inkscape:window-x="0"
     inkscape:window-y="0"
     inkscape:window-maximized="1"
     inkscape:current-layer="svg4" />
  <circle
     style="fill:#ffffff;stroke-width:2.3873"
     id="path844"
     cx="256"
     cy="256"
     r="250" />
  <path
     id="path847"
     style="fill:#000000;stroke-width:1.62481"
     d="M 256 0 A 256 256 0 0 0 0 256 A 256 256 0 0 0 256 512 A 256 256 0 0 0 512 256 A 256 256 0 0 0 256 0 z M 256 31 A 225 225 0 0 1 481 256 A 225 225 0 0 1 256 481 A 225 225 0 0 1 31 256 A 225 225 0 0 1 256 31 z " />
  <path
     d="m 251.595,212.16044 -79.23,-70.655 c -12.42,-10.75 -27.52,-4.395 -28.365,15.025 v 197.855 c 0.51,19.645 16.345,26.945 29.935,16.485 l 77.66,-69.235 v 52.75 c 1.11,20.315 16.19,26.765 29.935,16.485 l 108.72,-96.915 c 13.175,-11.75 12.825,-22.205 0,-34.105 l -110.29,-98.345 c -12.425,-9.995 -27.805,-3.68 -28.365,15.025 z"
     id="path2"
     style="stroke-width:0.5" />
</svg>
