<?xml version="1.0" encoding="UTF-8" standalone="no"?>
<svg
   version="1.1"
   width="256"
   height="256"
   viewBox="0 0 256 256"
   xml:space="preserve"
   id="svg31"
   sodipodi:docname="file.svg"
   inkscape:version="1.1.2 (0a00cf5339, 2022-02-04)"
   xmlns:inkscape="http://www.inkscape.org/namespaces/inkscape"
   xmlns:sodipodi="http://sodipodi.sourceforge.net/DTD/sodipodi-0.dtd"
   xmlns="http://www.w3.org/2000/svg"
   xmlns:svg="http://www.w3.org/2000/svg"><sodipodi:namedview
   id="namedview33"
   pagecolor="#ffffff"
   bordercolor="#666666"
   borderopacity="1.0"
   inkscape:pageshadow="2"
   inkscape:pageopacity="0.0"
   inkscape:pagecheckerboard="0"
   showgrid="false"
   showguides="false"
   inkscape:zoom="3.9719514"
   inkscape:cx="103.97912"
   inkscape:cy="120.46975"
   inkscape:window-width="2560"
   inkscape:window-height="1521"
   inkscape:window-x="0"
   inkscape:window-y="0"
   inkscape:window-maximized="1"
   inkscape:current-layer="svg31" />

<defs
   id="defs2">
</defs>
<path
   style="fill:#ffffff;fill-opacity:1;stroke:none;stroke-width:1px;stroke-linecap:butt;stroke-linejoin:miter;stroke-opacity:1"
   d="M 37.217103,5.5071688 39.509469,248.90591 217.67838,249.45889 217.20239,55.14534 168.84963,5.1605611 Z"
   id="path1607" /><g
   style="opacity:1;fill:none;fill-rule:nonzero;stroke:none;stroke-width:0;stroke-linecap:butt;stroke-linejoin:miter;stroke-miterlimit:10;stroke-dasharray:none"
   transform="matrix(2.81,0,0,2.81,1.4065934,1.4065934)"
   id="g29">
	<path
   d="M 77.474,17.28 61.526,1.332 C 60.668,0.473 59.525,0 58.311,0 H 15.742 c -2.508,0 -4.548,2.04 -4.548,4.548 v 80.904 c 0,2.508 2.04,4.548 4.548,4.548 h 58.516 c 2.508,0 4.549,-2.04 4.549,-4.548 V 20.496 c 0,-1.215 -0.474,-2.358 -1.333,-3.216 z M 61.073,5.121 73.684,17.733 H 62.35 c -0.704,0 -1.276,-0.573 -1.276,-1.277 V 5.121 Z M 74.258,87 H 15.742 c -0.854,0 -1.548,-0.694 -1.548,-1.548 V 4.548 C 14.194,3.694 14.888,3 15.742,3 h 42.332 v 13.456 c 0,2.358 1.918,4.277 4.276,4.277 h 13.457 v 64.719 c 0,0.854 -0.695,1.548 -1.549,1.548 z"
   style="opacity:1;fill:#000000;fill-rule:nonzero;stroke:none;stroke-width:1;stroke-linecap:butt;stroke-linejoin:miter;stroke-miterlimit:10;stroke-dasharray:none"
   stroke-linecap="round"
   id="path4" />
	<path
   d="M 68.193,33.319 H 41.808 c -0.829,0 -1.5,-0.671 -1.5,-1.5 0,-0.829 0.671,-1.5 1.5,-1.5 h 26.385 c 0.828,0 1.5,0.671 1.5,1.5 0,0.829 -0.672,1.5 -1.5,1.5 z"
   style="opacity:1;fill:#000000;fill-rule:nonzero;stroke:none;stroke-width:1;stroke-linecap:butt;stroke-linejoin:miter;stroke-miterlimit:10;stroke-dasharray:none"
   stroke-linecap="round"
   id="path6" />
	<path
   d="M 34.456,33.319 H 21.807 c -0.829,0 -1.5,-0.671 -1.5,-1.5 0,-0.829 0.671,-1.5 1.5,-1.5 h 12.649 c 0.829,0 1.5,0.671 1.5,1.5 0,0.829 -0.671,1.5 -1.5,1.5 z"
   style="opacity:1;fill:#000000;fill-rule:nonzero;stroke:none;stroke-width:1;stroke-linecap:butt;stroke-linejoin:miter;stroke-miterlimit:10;stroke-dasharray:none"
   stroke-linecap="round"
   id="path8" />
	<linearGradient
   id="SVGID_2"
   gradientUnits="userSpaceOnUse"
   x1="21.8064"
   y1="19.2332"
   x2="42.298401"
   y2="19.2332">
<stop
   offset="0%"
   style="stop-color:rgb(255,255,255);stop-opacity: 1"
   id="stop10" />
<stop
   offset="100%"
   style="stop-color:rgb(0,0,0);stop-opacity: 1"
   id="stop12" />
</linearGradient>
<line
   x1="-10.246"
   y1="0"
   x2="10.246"
   y2="0"
   style="opacity:1;fill:url(#SVGID_2);fill-rule:nonzero;stroke:none;stroke-width:1;stroke-linecap:butt;stroke-linejoin:miter;stroke-miterlimit:10;stroke-dasharray:none"
   id="line15" />
	<path
   d="M 42.298,20.733 H 21.807 c -0.829,0 -1.5,-0.671 -1.5,-1.5 0,-0.829 0.671,-1.5 1.5,-1.5 h 20.492 c 0.829,0 1.5,0.671 1.5,1.5 0,0.829 -0.672,1.5 -1.501,1.5 z"
   style="opacity:1;fill:#000000;fill-rule:nonzero;stroke:none;stroke-width:1;stroke-linecap:butt;stroke-linejoin:miter;stroke-miterlimit:10;stroke-dasharray:none"
   stroke-linecap="round"
   id="path17" />
	<path
   d="M 68.193,44.319 H 21.807 c -0.829,0 -1.5,-0.671 -1.5,-1.5 0,-0.829 0.671,-1.5 1.5,-1.5 h 46.387 c 0.828,0 1.5,0.671 1.5,1.5 0,0.829 -0.673,1.5 -1.501,1.5 z"
   style="opacity:1;fill:#000000;fill-rule:nonzero;stroke:none;stroke-width:1;stroke-linecap:butt;stroke-linejoin:miter;stroke-miterlimit:10;stroke-dasharray:none"
   stroke-linecap="round"
   id="path19" />
	<path
   d="M 48.191,55.319 H 21.807 c -0.829,0 -1.5,-0.672 -1.5,-1.5 0,-0.828 0.671,-1.5 1.5,-1.5 h 26.385 c 0.828,0 1.5,0.672 1.5,1.5 0,0.828 -0.672,1.5 -1.501,1.5 z"
   style="opacity:1;fill:#000000;fill-rule:nonzero;stroke:none;stroke-width:1;stroke-linecap:butt;stroke-linejoin:miter;stroke-miterlimit:10;stroke-dasharray:none"
   stroke-linecap="round"
   id="path21" />
	<path
   d="M 68.193,55.319 H 55.544 c -0.828,0 -1.5,-0.672 -1.5,-1.5 0,-0.828 0.672,-1.5 1.5,-1.5 h 12.649 c 0.828,0 1.5,0.672 1.5,1.5 0,0.828 -0.672,1.5 -1.5,1.5 z"
   style="opacity:1;fill:#000000;fill-rule:nonzero;stroke:none;stroke-width:1;stroke-linecap:butt;stroke-linejoin:miter;stroke-miterlimit:10;stroke-dasharray:none"
   stroke-linecap="round"
   id="path23" />
	<path
   d="M 68.193,66.319 H 21.807 c -0.829,0 -1.5,-0.672 -1.5,-1.5 0,-0.828 0.671,-1.5 1.5,-1.5 h 46.387 c 0.828,0 1.5,0.672 1.5,1.5 0,0.828 -0.673,1.5 -1.501,1.5 z"
   style="opacity:1;fill:#000000;fill-rule:nonzero;stroke:none;stroke-width:1;stroke-linecap:butt;stroke-linejoin:miter;stroke-miterlimit:10;stroke-dasharray:none"
   stroke-linecap="round"
   id="path25" />
	<path
   d="M 68.193,77.319 H 55.544 c -0.828,0 -1.5,-0.672 -1.5,-1.5 0,-0.828 0.672,-1.5 1.5,-1.5 h 12.649 c 0.828,0 1.5,0.672 1.5,1.5 0,0.828 -0.672,1.5 -1.5,1.5 z"
   style="opacity:1;fill:#000000;fill-rule:nonzero;stroke:none;stroke-width:1;stroke-linecap:butt;stroke-linejoin:miter;stroke-miterlimit:10;stroke-dasharray:none"
   stroke-linecap="round"
   id="path27" />
</g>
</svg>
