<?xml version="1.0" encoding="UTF-8" standalone="no"?>
<svg
   version="1.1"
   width="256"
   height="256"
   viewBox="0 0 256 256"
   xml:space="preserve"
   id="svg10"
   sodipodi:docname="folder_closed.svg"
   inkscape:version="1.1.2 (0a00cf5339, 2022-02-04)"
   xmlns:inkscape="http://www.inkscape.org/namespaces/inkscape"
   xmlns:sodipodi="http://sodipodi.sourceforge.net/DTD/sodipodi-0.dtd"
   xmlns="http://www.w3.org/2000/svg"
   xmlns:svg="http://www.w3.org/2000/svg"><sodipodi:namedview
   id="namedview12"
   pagecolor="#ffffff"
   bordercolor="#666666"
   borderopacity="1.0"
   inkscape:pageshadow="2"
   inkscape:pageopacity="0.0"
   inkscape:pagecheckerboard="0"
   showgrid="false"
   inkscape:zoom="2.8085938"
   inkscape:cx="127.82197"
   inkscape:cy="128"
   inkscape:window-width="2560"
   inkscape:window-height="1521"
   inkscape:window-x="0"
   inkscape:window-y="0"
   inkscape:window-maximized="1"
   inkscape:current-layer="svg10" />

<defs
   id="defs2">
</defs>
<g
   style="opacity:1;fill:none;fill-rule:nonzero;stroke:none;stroke-width:0;stroke-linecap:butt;stroke-linejoin:miter;stroke-miterlimit:10;stroke-dasharray:none"
   transform="matrix(2.4666272,0,0,2.4666272,1.4065934,17.000543)"
   id="g8">
	<path
   d="m 0,68.798 v 11.914 c 0,1.713 1.401,3.114 3.114,3.114 v 0 c 3.344,0 4.805,-2.642 4.805,-2.642 L 8.14,29.281 10.879,26.454 83.773,23.477 v -1.482 c 0,-2.396 -1.942,-4.338 -4.338,-4.338 H 50.236 c -1.15,0 -2.254,-0.457 -3.067,-1.27 L 38.226,7.444 C 37.413,6.631 36.309,6.174 35.159,6.174 H 4.338 C 1.942,6.174 0,8.116 0,10.512 v 7.146 2.332 48.808"
   style="opacity:1;fill:#e0ad31;fill-rule:nonzero;stroke:none;stroke-width:1;stroke-linecap:butt;stroke-linejoin:miter;stroke-miterlimit:10;stroke-dasharray:none"
   stroke-linecap="round"
   id="path4" />
	<path
   d="m 3.114,83.826 v 0 c 1.713,0 3.114,-1.401 3.114,-3.114 V 27.81 c 0,-2.393 1.94,-4.333 4.333,-4.333 h 75.107 c 2.393,0 4.333,1.94 4.333,4.333 v 51.684 c 0,2.393 -1.94,4.333 -4.333,4.333 C 85.667,83.826 3.114,83.826 3.114,83.826 Z"
   style="opacity:1;fill:#ffc843;fill-rule:nonzero;stroke:none;stroke-width:1;stroke-linecap:butt;stroke-linejoin:miter;stroke-miterlimit:10;stroke-dasharray:none"
   stroke-linecap="round"
   id="path6" />
</g>
</svg>
