<?xml version="1.0" encoding="UTF-8" standalone="no"?>
<svg
   version="1.1"
   id="Layer_1"
   x="0px"
   y="0px"
   viewBox="0 0 122.88 122.88"
   style="enable-background:new 0 0 122.88 122.88"
   xml:space="preserve"
   sodipodi:docname="imdb.svg"
   inkscape:version="1.1.2 (0a00cf5339, 2022-02-04)"
   xmlns:inkscape="http://www.inkscape.org/namespaces/inkscape"
   xmlns:sodipodi="http://sodipodi.sourceforge.net/DTD/sodipodi-0.dtd"
   xmlns="http://www.w3.org/2000/svg"
   xmlns:svg="http://www.w3.org/2000/svg"><defs
     id="defs13" /><sodipodi:namedview
     id="namedview11"
     pagecolor="#ffffff"
     bordercolor="#666666"
     borderopacity="1.0"
     inkscape:pageshadow="2"
     inkscape:pageopacity="0.0"
     inkscape:pagecheckerboard="0"
     showgrid="false"
     inkscape:zoom="5.8512371"
     inkscape:cx="61.354547"
     inkscape:cy="61.439999"
     inkscape:window-width="2560"
     inkscape:window-height="1521"
     inkscape:window-x="0"
     inkscape:window-y="0"
     inkscape:window-maximized="1"
     inkscape:current-layer="g8" /><style
     type="text/css"
     id="style2"><![CDATA[
	.st0{fill:#F5C518;}
]]></style><g
     id="g8"><path
       class="st0"
       d="M18.43,0h86.02c10.18,0,18.43,8.25,18.43,18.43v86.02c0,10.18-8.25,18.43-18.43,18.43H18.43 C8.25,122.88,0,114.63,0,104.45l0-86.02C0,8.25,8.25,0,18.43,0L18.43,0z"
       id="path4" /><path
       d="M 13.104,84.336 V 38.544 H 0.384 v 45.792 z m 27.03,-45.792 -2.862,21.306 -1.59,-11.448 -1.59,-9.858 h -15.9 v 45.792 h 10.812 v -30.21 l 4.452,30.21 h 7.95 L 45.54,53.49 V 84.336 H 56.352 V 38.544 Z M 61.44,84.336 V 38.544 h 19.716 c 4.77,0 8.268,3.498 8.268,7.95 v 29.892 c 0,4.452 -3.498,7.95 -8.268,7.95 z M 76.386,46.812 73.524,46.494 v 29.892 c 1.59,0 2.862,-0.318 3.18,-0.954 0.636,-0.636 0.636,-2.544 0.636,-5.724 V 51.9 48.084 l -0.954,-1.272 z m 36.888,3.18 h 0.954 c 4.452,0 8.268,3.498 8.268,7.95 v 18.444 c 0,4.452 -3.816,7.95 -8.268,7.95 h -0.954 c -2.544,0 -5.088,-1.272 -6.678,-3.498 L 105.96,83.7 H 94.512 V 38.544 h 12.084 v 14.628 c 1.59,-1.908 4.134,-3.18 6.678,-3.18 z m -2.544,22.26 V 61.44 l -0.318,-3.498 c -0.318,-0.636 -1.272,-0.954 -1.908,-0.954 -0.636,0 -1.59,0.318 -1.908,0.954 v 18.126 c 0.318,0.636 1.272,0.954 1.908,0.954 0.636,0 1.908,-0.318 1.908,-0.954 z"
       id="path6"
       style="stroke-width:1.325" /></g></svg>
