<?xml version="1.0" encoding="UTF-8" standalone="no"?>
<svg
   version="1.1"
   id="Layer_1"
   x="0px"
   y="0px"
   viewBox="0 0 122.88 122.88"
   xml:space="preserve"
   sodipodi:docname="NotCheckedForRecordingErrors.svg"
   inkscape:version="1.1.2 (0a00cf5339, 2022-02-04)"
   width="122.88"
   height="122.88"
   xmlns:inkscape="http://www.inkscape.org/namespaces/inkscape"
   xmlns:sodipodi="http://sodipodi.sourceforge.net/DTD/sodipodi-0.dtd"
   xmlns="http://www.w3.org/2000/svg"
   xmlns:svg="http://www.w3.org/2000/svg"><defs
     id="defs31"><linearGradient
       id="linearGradient1279"
       inkscape:swatch="solid"><stop
         style="stop-color:#000000;stop-opacity:1;"
         offset="0"
         id="stop1277" /></linearGradient></defs><sodipodi:namedview
     id="namedview29"
     pagecolor="#ffffff"
     bordercolor="#666666"
     borderopacity="1.0"
     inkscape:pageshadow="2"
     inkscape:pageopacity="0.0"
     inkscape:pagecheckerboard="0"
     showgrid="false"
     inkscape:zoom="7.335238"
     inkscape:cx="61.620359"
     inkscape:cy="49.009998"
     inkscape:window-width="2560"
     inkscape:window-height="1521"
     inkscape:window-x="0"
     inkscape:window-y="0"
     inkscape:window-maximized="1"
     inkscape:current-layer="g26" /><style
     type="text/css"
     id="style2"><![CDATA[
	.st0{clip-path:url(#SVGID_2_);}
	.st1{fill:#35464E;}
]]></style><g
     id="g26"><path
       id="path1114"
       style="fill:#ffd42a;stroke:#ffd42a;stroke-width:7.91195;stroke-linecap:round;stroke-linejoin:round;stroke-miterlimit:14;stroke-dasharray:none;stroke-opacity:1"
       inkscape:transform-center-x="0.043971425"
       inkscape:transform-center-y="-16.556212"
       d="m 118.92432,111.26076 -57.484323,-0.0762 -57.4843178,-0.0762 28.8081138,-49.744797 28.808118,-49.7448 28.6762,49.82096 z" /><path
       class="st1"
       d="m 57.71089,91.620835 c 0.98,-0.95 2.15,-1.42 3.32,-1.51 0.78,-0.06 1.56,0.07 2.29,0.34 0.72,0.27 1.38,0.7 1.93,1.24 0.86,0.86 1.45,2.03 1.55,3.39 0.03,0.44 0,0.89 -0.08,1.34 -0.08,0.45 -0.22,0.88 -0.4,1.28 -0.62,1.33 -1.63,2.23 -2.78,2.710005 -0.7,0.29 -1.45,0.42 -2.2,0.4 -0.75,-0.02 -1.49,-0.19 -2.16,-0.5 -1.15,-0.540005 -2.14,-1.480005 -2.69,-2.800005 -0.16,-0.38 -0.27,-0.79 -0.34,-1.21 -0.07,-0.43 -0.09,-0.85 -0.06,-1.25 v -0.01 c 0.04,-0.56 0.24,-1.29 0.54,-1.92 0.26,-0.57 0.63,-1.11 1.08,-1.5 z m 7.78,-9.77 c -0.07,1.69 -1.18,2.75 -2.59,3.21 -0.48,0.16 -0.98,0.23 -1.47,0.23 -0.48,0 -0.99,-0.08 -1.47,-0.23 -1.41,-0.45 -2.52,-1.52 -2.58,-3.21 -0.78,-7.83 -2.79,-20.13 -2.72,-27.5 0.07,-2.27 1.95,-3.61 4.35,-4.12 0.74,-0.16 1.56,-0.24 2.38,-0.23 0.83,0 1.64,0.08 2.39,0.24 2.48,0.53 4.44,1.93 4.44,4.24 l -0.01,0.23 z"
       id="path24"
       style="fill:#ffffff" /></g></svg>
