<?xml version="1.0" encoding="UTF-8" standalone="no"?>
<!-- Created with Inkscape (http://www.inkscape.org/) -->

<!-- Remade by https://commons.wikimedia.org/wiki/User:Unagen -->

<svg
   width="37mm"
   height="37mm"
   viewBox="0 0 131.10237 131.10236"
   id="svg4147"
   version="1.1"
   inkscape:version="1.1.2 (0a00cf5339, 2022-02-04)"
   sodipodi:docname="playlist.svg"
   xmlns:inkscape="http://www.inkscape.org/namespaces/inkscape"
   xmlns:sodipodi="http://sodipodi.sourceforge.net/DTD/sodipodi-0.dtd"
   xmlns="http://www.w3.org/2000/svg"
   xmlns:svg="http://www.w3.org/2000/svg"
   xmlns:rdf="http://www.w3.org/1999/02/22-rdf-syntax-ns#"
   xmlns:cc="http://creativecommons.org/ns#"
   xmlns:dc="http://purl.org/dc/elements/1.1/">
  <defs
     id="defs4149" />
  <sodipodi:namedview
     id="base"
     pagecolor="#ffffff"
     bordercolor="#666666"
     borderopacity="1.0"
     inkscape:pageopacity="0.0"
     inkscape:pageshadow="2"
     inkscape:zoom="8.9743806"
     inkscape:cx="69.865546"
     inkscape:cy="69.92126"
     inkscape:document-units="px"
     inkscape:current-layer="layer1"
     showgrid="false"
     inkscape:window-width="2560"
     inkscape:window-height="1521"
     inkscape:window-x="0"
     inkscape:window-y="0"
     inkscape:window-maximized="1"
     fit-margin-top="0"
     fit-margin-left="0"
     fit-margin-right="0"
     fit-margin-bottom="0"
     inkscape:pagecheckerboard="0"
     units="mm"
     width="37mm"
     height="37mm" />
  <metadata
     id="metadata4152">
    <rdf:RDF>
      <cc:Work
         rdf:about="">
        <dc:format>image/svg+xml</dc:format>
        <dc:type
           rdf:resource="http://purl.org/dc/dcmitype/StillImage" />
      </cc:Work>
    </rdf:RDF>
  </metadata>
  <g
     inkscape:label="Layer 1"
     inkscape:groupmode="layer"
     id="layer1"
     transform="translate(-413.03981,-496.83059)">
    <rect
       style="fill:#ffffff;stroke-width:38.1828"
       id="rect857"
       width="131.10237"
       height="53.149609"
       x="413.03979"
       y="567.83765" />
    <path
       fill="#f57c00"
       d="m 463.3031,536.97219 c 0,0 -0.18048,-1.37321 -2.06227,-1.37321 h -6.10148 c 1.30921,4.38211 2.456,8.42461 2.456,8.66086 0,3.91618 -5.57975,5.56664 -14.62944,5.56664 -9.04806,0 -14.19306,-1.54219 -14.19306,-5.45671 0,-0.274 1.63735,-4.41656 2.93837,-8.77079 h -6.66587 c -1.32233,0 -1.53725,1.22883 -1.53725,1.22883 l -6.30494,20.07634 1.07625,1.66358 h 50.28844 l 0.61688,-1.66358 z"
       id="path2"
       sodipodi:nodetypes="cscssscscccccc"
       style="stroke-width:1.64062" />
    <path
       fill="#e0e0e0"
       d="m 443.19395,499.50523 c -1.6882,0 -3.05812,0.29367 -3.05812,0.65298 -0.80719,2.43304 -13.32517,42.89085 -13.32517,43.92608 0,3.91782 7.33525,6.27867 16.38165,6.27867 9.04641,0 16.38329,-2.36085 16.38329,-6.27867 0,-0.9007 -12.49173,-41.45531 -13.32517,-43.92608 0.002,-0.35931 -1.36664,-0.65298 -3.05648,-0.65298 z"
       id="path4"
       style="stroke-width:1.64062" />
    <path
       fill="#ff9800"
       d="m 458.2795,539.61358 c -1.90969,2.92853 -7.96523,5.82915 -15.01171,5.82915 -7.12032,0 -13.38094,-2.7825 -15.22665,-5.75858 -0.81867,2.43304 -1.46344,4.34273 -1.46344,5.38125 0,3.91452 7.43696,6.93819 16.61625,6.93819 9.1793,0 16.62117,-3.02532 16.62117,-6.93819 0,-0.89907 -0.68742,-2.97775 -1.53562,-5.45182 z m -2.9679,-10.06193 -3.40265,-11.14642 c 0,0 -3.04664,2.42648 -8.71335,2.42648 -5.66508,0 -8.72156,-2.42648 -8.72156,-2.42648 l -3.41415,11.1661 c 0,0 3.39281,4.38703 12.13571,4.38703 8.81506,0 12.116,-4.40671 12.116,-4.40671 z m -6.80202,-22.15665 -2.2575,-7.23516 c 0,0 -0.13615,-0.65296 -3.05813,-0.65296 -3.02531,0 -3.05812,0.65296 -3.05812,0.65296 l -2.2575,7.23024 c 0,0 1.45196,1.9589 5.31398,1.9589 3.86367,0 5.31727,-1.95398 5.31727,-1.95398 z"
       id="path6"
       style="stroke-width:1.64062" />
    <g
       aria-label="M3U"
       id="text3164"
       style="font-size:56.25px;line-height:1.25;stroke-width:0.9375">
      <path
         d="m 413.35968,574.38892 h 13.45825 l 9.33838,21.94519 9.39331,-21.94519 h 13.43079 v 41.00647 h -9.99756 v -29.99268 l -9.44824,22.10999 h -6.70166 l -9.44825,-22.10999 v 29.99268 h -10.02502 z"
         style="font-weight:bold;-inkscape-font-specification:'sans-serif Bold'"
         id="path833" />
      <path
         d="m 490.37384,593.2854 q 4.14734,1.07117 6.28967,3.73535 2.1698,2.63672 2.1698,6.72913 0,6.09741 -4.66919,9.28345 -4.66919,3.15856 -13.62304,3.15856 -3.15857,0 -6.34461,-0.52185 -3.15857,-0.49438 -6.2622,-1.51062 v -8.15734 q 2.9663,1.48315 5.87768,2.25219 2.93884,0.74158 5.76782,0.74158 4.20227,0 6.427,-1.45569 2.2522,-1.45569 2.2522,-4.1748 0,-2.80152 -2.30713,-4.22974 -2.27966,-1.45569 -6.75659,-1.45569 h -4.22973 v -6.81152 h 4.44946 q 3.98254,0 5.93262,-1.23596 1.95007,-1.26343 1.95007,-3.81775 0,-2.36206 -1.89514,-3.65296 -1.89514,-1.29089 -5.35584,-1.29089 -2.55432,0 -5.16357,0.57678 -2.60926,0.57678 -5.19104,1.70288 v -7.74536 q 3.1311,-0.8789 6.20727,-1.31836 3.07617,-0.43945 6.04248,-0.43945 7.99256,0 11.94764,2.63672 3.98254,2.60925 3.98254,7.88269 0,3.59802 -1.89514,5.90515 -1.89514,2.27966 -5.60303,3.2135 z"
         style="font-weight:bold;-inkscape-font-specification:'sans-serif Bold'"
         id="path835" />
      <path
         d="m 508.47382,574.38892 h 10.57434 v 24.58191 q 0,5.08117 1.64795,7.27844 1.67541,2.1698 5.43823,2.1698 3.79028,0 5.43823,-2.1698 1.67542,-2.19727 1.67542,-7.27844 v -24.58191 h 10.57434 v 24.58191 q 0,8.70666 -4.36707,12.96386 -4.36706,4.2572 -13.32092,4.2572 -8.92639,0 -13.29346,-4.2572 -4.36706,-4.2572 -4.36706,-12.96386 z"
         style="font-weight:bold;-inkscape-font-specification:'sans-serif Bold'"
         id="path837" />
    </g>
    <g
       transform="matrix(1.0398333,0,0,1.0398333,478.03581,-532.29118)"
       id="layer1-3">
      <circle
         r="27.949194"
         cy="1020.3622"
         cx="32"
         id="path4380"
         style="opacity:1;fill:#e5e5e5;fill-opacity:1;fill-rule:nonzero;stroke:none;stroke-width:0.10161;stroke-linecap:round;stroke-linejoin:bevel;stroke-miterlimit:1;stroke-dasharray:none;stroke-dashoffset:0;stroke-opacity:0.992157" />
      <circle
         r="25.950588"
         cy="1019.5079"
         cx="32.727058"
         id="path4390"
         style="opacity:1;fill:#672168;fill-opacity:1;fill-rule:nonzero;stroke:none;stroke-width:0.0988237;stroke-linecap:round;stroke-linejoin:bevel;stroke-miterlimit:1;stroke-dasharray:none;stroke-dashoffset:0;stroke-opacity:0.992157" />
      <circle
         r="20"
         cy="1017.7957"
         cx="34.224396"
         id="path4400"
         style="opacity:1;fill:#420143;fill-opacity:1;fill-rule:nonzero;stroke:none;stroke-width:0.1;stroke-linecap:round;stroke-linejoin:bevel;stroke-miterlimit:1;stroke-dasharray:none;stroke-dashoffset:0;stroke-opacity:0.992157" />
      <path
         id="path4412"
         d="m 44.481446,1020.4807 a 12.848894,12.848894 0 0 1 -12.84889,12.8489 12.848894,12.848894 0 0 1 -12.8489,-12.8489 12.848894,12.848894 0 0 1 12.8489,-12.8489 12.848894,12.848894 0 0 1 12.84889,12.8489 z"
         style="fill:#dddbdd;fill-opacity:1;fill-rule:evenodd;stroke:none;stroke-width:0.1;stroke-linecap:butt;stroke-linejoin:miter;stroke-miterlimit:4;stroke-dasharray:none;stroke-opacity:1" />
      <path
         id="path4426"
         d="m 28.374316,1014.709 v 11.4502 l 9.21608,-5.8647 z"
         style="fill:#691f69;fill-opacity:1;fill-rule:evenodd;stroke:none;stroke-width:0.1;stroke-linecap:butt;stroke-linejoin:miter;stroke-miterlimit:4;stroke-dasharray:none;stroke-opacity:1" />
    </g>
  </g>
</svg>
