<?xml version="1.0" encoding="UTF-8" standalone="no"?>
<!-- Generator: Adobe Illustrator 18.1.1, SVG Export Plug-In . SVG Version: 6.00 Build 0)  -->

<svg
   version="1.1"
   id="Capa_1"
   x="0px"
   y="0px"
   viewBox="0 0 18.777 18.777"
   xml:space="preserve"
   sodipodi:docname="sd.svg"
   style="enable-background:new 0 0 18.777 18.777;"
   inkscape:version="1.1.2 (0a00cf5339, 2022-02-04)"
   xmlns:inkscape="http://www.inkscape.org/namespaces/inkscape"
   xmlns:sodipodi="http://sodipodi.sourceforge.net/DTD/sodipodi-0.dtd"
   xmlns="http://www.w3.org/2000/svg"
   xmlns:svg="http://www.w3.org/2000/svg"><defs
   id="defs47" /><sodipodi:namedview
   id="namedview45"
   pagecolor="#ffffff"
   bordercolor="#666666"
   borderopacity="1.0"
   inkscape:pageshadow="2"
   inkscape:pageopacity="0.0"
   inkscape:pagecheckerboard="0"
   showgrid="false"
   inkscape:zoom="45.254834"
   inkscape:cx="9.3912619"
   inkscape:cy="9.3802134"
   inkscape:window-width="2560"
   inkscape:window-height="1521"
   inkscape:window-x="0"
   inkscape:window-y="0"
   inkscape:window-maximized="1"
   inkscape:current-layer="g10" />
<g
   id="g12">
	<g
   id="g10">
		
		
		
		
	<g
   id="g2281"
   transform="matrix(1.7325,0,0,1.7325,-6.8779423,-3.7594423)"><path
     style="fill:#a0a0a0;fill-opacity:1"
     d="m 11.32,10.136 c 1.07,0 1.795,-0.197 2.368,-0.652 0.615,-0.49 1.018,-1.319 1.018,-2.272 C 14.699,6.486 14.45,5.995 14.054,5.665 13.637,5.306 13.021,5.13 12.251,5.13 c -0.476,0 -0.945,0.037 -1.364,0.11 l -0.915,4.809 c 0.24,0.043 0.754,0.087 1.348,0.087 z m 0.483,-4.127 c 0.111,-0.021 0.265,-0.028 0.447,-0.028 0.872,0 1.305,0.461 1.305,1.238 0,0.594 -0.176,1.106 -0.513,1.487 -0.323,0.374 -0.829,0.58 -1.401,0.58 -0.183,0 -0.336,-0.008 -0.461,-0.029 z"
     id="path4" /><path
     style="fill:#a0a0a0;fill-opacity:1"
     d="m 6.95,6.434 c 0,0.319 0.261,0.544 0.744,0.792 0.626,0.343 1.193,0.814 1.193,1.546 0,1.025 -0.704,1.669 -1.704,1.878 1.669,-0.026 3.015,-1.383 3.015,-3.058 0,-0.914 -0.409,-1.725 -1.044,-2.286 L 8.899,6.021 C 8.686,5.904 8.297,5.761 7.825,5.761 7.304,5.761 6.95,6.045 6.95,6.434 Z"
     id="path6" /><path
     style="fill:#a0a0a0;fill-opacity:1"
     d="M 5.191,9.327 C 5.486,9.492 6.053,9.716 6.573,9.716 7.128,9.705 7.458,9.386 7.458,9.008 7.458,8.642 7.27,8.417 6.703,8.123 6.042,7.78 5.569,7.284 5.569,6.623 c 0,-1.11 0.969,-1.889 2.326,-1.889 0.136,0 0.264,0.009 0.387,0.021 C 7.928,4.611 7.541,4.528 7.135,4.528 c -1.691,0 -3.063,1.37 -3.063,3.063 0,0.87 0.366,1.651 0.95,2.21 z"
     id="path8" /></g></g>
</g>
<g
   id="g14">
</g>
<g
   id="g16">
</g>
<g
   id="g18">
</g>
<g
   id="g20">
</g>
<g
   id="g22">
</g>
<g
   id="g24">
</g>
<g
   id="g26">
</g>
<g
   id="g28">
</g>
<g
   id="g30">
</g>
<g
   id="g32">
</g>
<g
   id="g34">
</g>
<g
   id="g36">
</g>
<g
   id="g38">
</g>
<g
   id="g40">
</g>
<g
   id="g42">
</g>
</svg>
