<?xml version="1.0" encoding="UTF-8" standalone="no"?>
<svg
   width="246"
   height="246"
   viewBox="0 0 196.8 196.8"
   version="1.1"
   id="svg2"
   inkscape:version="1.1.2 (0a00cf5339, 2022-02-04)"
   sodipodi:docname="ud.svg"
   xmlns:inkscape="http://www.inkscape.org/namespaces/inkscape"
   xmlns:sodipodi="http://sodipodi.sourceforge.net/DTD/sodipodi-0.dtd"
   xmlns="http://www.w3.org/2000/svg"
   xmlns:svg="http://www.w3.org/2000/svg"
   xmlns:rdf="http://www.w3.org/1999/02/22-rdf-syntax-ns#"
   xmlns:cc="http://creativecommons.org/ns#"
   xmlns:dc="http://purl.org/dc/elements/1.1/">
  <metadata
     id="metadata26">
    <rdf:RDF>
      <cc:Work
         rdf:about="">
        <dc:format>image/svg+xml</dc:format>
        <dc:type
           rdf:resource="http://purl.org/dc/dcmitype/StillImage" />
      </cc:Work>
    </rdf:RDF>
  </metadata>
  <defs
     id="defs24" />
  <sodipodi:namedview
     pagecolor="#ffffff"
     bordercolor="#666666"
     borderopacity="1"
     objecttolerance="10"
     gridtolerance="10"
     guidetolerance="10"
     inkscape:pageopacity="0"
     inkscape:pageshadow="2"
     inkscape:window-width="2560"
     inkscape:window-height="1521"
     id="namedview22"
     showgrid="false"
     inkscape:zoom="3.68"
     inkscape:cx="87.771739"
     inkscape:cy="96.875"
     inkscape:window-x="0"
     inkscape:window-y="0"
     inkscape:window-maximized="1"
     inkscape:current-layer="#161616ff"
     inkscape:pagecheckerboard="0"
     height="246px" />
  <g
     id="#ffffffff"
     transform="translate(0,-262.8)" />
  <g
     id="#161616ff"
     transform="matrix(0.3686254,0,0,0.3686254,-12.288085,-24.502063)">
    <g
       id="g839"
       transform="translate(0.31278959,164.67639)">
      <path
         d="m 95.06,69.13 c 1.31,-0.15 2.62,-0.24 3.93,-0.24 48.69,0.02 97.37,0 146.05,0.01 5.75,0.11 11.57,2.34 15.53,6.59 3.93,4.11 5.73,9.9 5.72,15.51 -0.36,4.06 -1.3,8.04 -2.16,12.02 -9.56,45.7 -19.11,91.4 -28.67,137.1 -2.62,15.31 -16.79,27.98 -32.39,28.43 -48.98,-0.01 -97.96,0.01 -146.94,-0.01 -8.17,-0.05 -16.24,-4.99 -19.3,-12.69 C 33.91,249.18 35.47,241.78 37.08,235 46.71,188.96 56.34,142.91 65.96,96.87 68.54,82.75 80.92,71.16 95.06,69.13 m -2.5,22.59 c -7.85,2.2 -13.37,10.33 -12.43,18.44 0.5,10.32 11.77,18.33 21.65,15.32 8.17,-1.85 14.07,-10.25 13.08,-18.56 -0.56,-10.61 -12.21,-18.49 -22.3,-15.2 m 127.88,-0.14 c -8.3,2.09 -14.26,10.81 -12.88,19.33 1.07,10.26 12.68,17.93 22.47,14.32 9.19,-2.53 14.8,-13.47 11.37,-22.39 C 238.71,94.36 229,89.21 220.44,91.58 m -45.01,49.06 c -6.72,1.11 -12.03,7.61 -11.78,14.42 0,6.47 4.95,12.46 11.27,13.8 8.52,2.27 17.8,-5.11 17.51,-13.93 0.49,-8.75 -8.5,-16.22 -17,-14.29 m -93.74,1.16 c -5.21,2.54 -8.71,8.37 -8.03,14.21 0.36,8.97 10.61,15.74 18.99,12.4 7.09,-2.25 11.33,-10.44 9.17,-17.55 -2.08,-8.38 -12.45,-13.06 -20.13,-9.06 m 127.68,-0.14 c -5.05,2.34 -8.65,7.75 -8.29,13.39 -0.3,7.91 7.22,14.66 14.98,14.18 7.66,-0.3 14.44,-7.47 13.63,-15.24 0,-9.77 -11.62,-16.73 -20.32,-12.33 m -44.05,43.86 c -6.15,2.28 -9.21,10.23 -6.01,16 2.75,6.04 11.13,8.06 16.54,4.43 4.14,-2.66 6.28,-8.15 4.77,-12.88 -1.62,-6.33 -9.26,-10.21 -15.3,-7.55 m 37.08,0.08 c -3.43,1.5 -6.28,4.68 -6.85,8.44 -1.35,6.12 3.14,12.85 9.43,13.56 6.8,1.4 13.86,-4.64 13.34,-11.6 0.3,-7.8 -8.89,-13.76 -15.92,-10.4 m -128.03,0.89 c -3.95,1.83 -6.7,6.1 -6.54,10.49 -0.13,4.92 3.39,9.64 8.15,10.93 7.32,2.71 15.87,-4.22 14.76,-11.96 -0.18,-7.77 -9.54,-13.09 -16.37,-9.46 m 48.05,38.11 c -7.09,1.38 -9.6,11.47 -3.91,15.96 5.03,4.85 14.45,1.41 15.2,-5.52 1.24,-6.22 -5.2,-12.17 -11.29,-10.44 m -39.95,1.13 c -5.45,3.07 -5.86,11.85 -0.59,15.31 5.41,4.51 14.87,0.05 14.57,-7.06 0.84,-7.1 -8.16,-12.33 -13.98,-8.25 m 75.65,-0.55 c -6.24,2.49 -7.4,11.88 -1.87,15.74 4.85,4.09 13.03,1.26 14.56,-4.83 2.43,-7.06 -6.06,-14.43 -12.69,-10.91 m 36.26,0.53 c -5.56,3.1 -5.97,11.91 -0.57,15.38 5.53,4.46 14.67,-0.05 14.62,-7.14 0.51,-7 -8.16,-12.29 -14.05,-8.24 z"
         id="path6"
         inkscape:connector-curvature="0"
         style="fill:#a0a0a0;fill-opacity:1" />
      <path
         d="m 288.46,71.45 c 6.52,0.01 13.03,-0.03 19.54,0.01 -2.53,11.86 -4.9,23.74 -7.41,35.6 -0.55,3.38 -1.25,7 0.12,10.28 2.24,3.56 7.42,3.86 10.89,2.04 4.31,-2 5.9,-6.96 6.99,-11.22 2.63,-12.24 5.05,-24.53 7.78,-36.75 6.48,0.08 12.97,0 19.45,0.05 -2.97,14.12 -5.83,28.26 -8.81,42.37 -1.54,7.25 -5.72,14.18 -12.26,17.92 -8.25,4.82 -18.37,5.13 -27.59,3.65 -6.13,-1.19 -12.46,-4.2 -15.57,-9.88 -2.53,-4.05 -2.45,-9.08 -1.58,-13.61 2.81,-13.49 5.63,-26.98 8.45,-40.46 z"
         id="path8"
         inkscape:connector-curvature="0"
         style="fill:#a0a0a0;fill-opacity:1" />
      <path
         d="m 396.19,71.46 c 17.57,-0.01 35.14,-0.03 52.71,0.01 -0.82,3.93 -1.75,7.85 -2.51,11.8 -6.32,-0.04 -12.63,-0.01 -18.94,-0.03 -3.59,17.16 -7.05,34.34 -10.86,51.45 -4.65,-0.06 -9.3,-0.01 -13.94,-0.06 3.63,-17.11 7.12,-34.24 10.81,-51.34 -6.6,-0.1 -13.2,-0.01 -19.8,-0.05 0.79,-3.94 1.56,-7.88 2.53,-11.78 z"
         id="path10"
         inkscape:connector-curvature="0"
         style="fill:#a0a0a0;fill-opacity:1" />
      <path
         d="m 457.88,71.47 c 10.14,0.04 20.3,-0.2 30.45,0.13 6.26,0.15 13.3,2.99 15.63,9.27 2.23,6.43 1.47,14.54 -3.61,19.46 -2.62,2.53 -6.15,3.78 -9.65,4.49 4.27,1.43 6.99,5.76 6.78,10.2 0.57,6.56 -2.5,13.24 0.05,19.62 -3.91,0.02 -7.83,0.05 -11.74,-0.03 -1.34,-6.9 1.02,-13.79 0.4,-20.69 -0.35,-3.05 -3.37,-4.8 -6.2,-4.99 -6.15,-0.54 -12.34,-0.08 -18.51,-0.26 -1.85,8.64 -3.64,17.3 -5.39,25.96 -3.82,0.04 -7.64,0.06 -11.46,-0.05 4.68,-20.98 8.68,-42.11 13.25,-63.11 m 5.43,28.72 c 5.57,-0.02 11.14,0.03 16.72,-0.01 4.21,-0.02 8.86,-1.13 11.65,-4.53 2.43,-2.75 2.59,-6.79 1.79,-10.2 -1.08,-3.09 -4.48,-4.49 -7.51,-4.7 -6.19,-0.41 -12.39,-0.04 -18.59,-0.21 -1.53,6.51 -2.85,13.08 -4.06,19.65 z"
         id="path12"
         inkscape:connector-curvature="0"
         style="fill:#a0a0a0;fill-opacity:1" />
      <path
         d="m 539.36,71.46 c 3.91,0.2 8.14,-0.5 11.87,0.33 3.53,20.96 7.37,41.87 10.81,62.84 -3.78,0.04 -7.56,0.04 -11.34,0 -0.62,-5.44 -1.49,-10.84 -2.45,-16.22 -0.19,-0.14 -0.56,-0.41 -0.74,-0.55 -8,-0.15 -16,0.08 -24,-0.1 -3.5,5.48 -6.68,11.17 -9.87,16.85 -4.04,0.08 -8.07,0.05 -12.11,0.03 12.66,-21.03 25.25,-42.1 37.83,-63.18 m -11.37,37.98 c 6.35,0.05 12.7,0.02 19.05,0.02 -1.25,-8.98 -2.5,-17.95 -3.89,-26.9 -5.02,8.98 -10.12,17.91 -15.16,26.88 z"
         id="path14"
         inkscape:connector-curvature="0"
         style="fill:#a0a0a0;fill-opacity:1" />
      <path
         d="m 355.51,71.45 c 5.49,0.01 10.99,-0.04 16.48,0.03 -3.1,16.4 -7.08,32.63 -9.98,49.05 9.77,0 19.55,-0.02 29.32,0.01 -0.98,4.71 -2.09,9.38 -2.95,14.11 -15.34,0.01 -30.68,0.02 -46.02,-0.01 4.39,-21.06 8.83,-42.12 13.15,-63.19 z"
         id="path16"
         inkscape:connector-curvature="0"
         style="fill:#a0a0a0;fill-opacity:1" />
      <path
         d="m 247.39,268.54 c 8.34,-40.02 16.6,-80.06 25.16,-120.03 15.76,0.03 31.53,-0.01 47.29,0.02 -2.61,13.93 -5.9,27.72 -8.56,41.64 14.39,-0.01 28.79,-0.03 43.19,0 2.7,-13.89 6.06,-27.66 8.52,-41.59 15.92,-0.13 31.85,-0.04 47.78,-0.04 -8.58,39.97 -16.62,80.06 -25.24,120.03 -15.81,-0.05 -31.61,0 -47.41,-0.02 3.19,-15.92 6.85,-31.76 9.76,-47.73 -14.35,0.02 -28.71,-0.01 -43.06,0.01 -3.34,15.91 -6.54,31.86 -10.05,47.74 -15.79,-0.05 -31.59,0 -47.38,-0.03 z"
         id="path18"
         inkscape:connector-curvature="0"
         style="fill:#a0a0a0;fill-opacity:1" />
      <path
         d="m 404.27,268.55 c 8.42,-40.02 16.62,-80.08 25.19,-120.06 23.16,0.07 46.32,0.01 69.48,0.02 16.7,-0.34 34.03,3.8 47.49,13.99 9.97,7.43 16.51,19.08 17.87,31.42 1.93,17.1 -2.67,35.29 -14,48.48 -9.99,11.83 -24.44,19.06 -39.28,22.74 -9.18,2.22 -18.62,3.2 -28.05,3.41 -26.23,0 -52.46,0 -78.7,0 m 66.48,-89.24 c -4.21,19.42 -8.19,38.9 -12.36,58.33 8.48,-0.05 16.97,0.11 25.46,-0.08 8.53,-0.19 17.24,-3.11 23.39,-9.17 8.82,-8.81 11.98,-22.57 8.64,-34.48 -1.8,-6.17 -6.96,-10.97 -13.07,-12.76 -10.4,-3.13 -21.39,-1.4 -32.06,-1.84 z"
         id="path20"
         inkscape:connector-curvature="0"
         style="fill:#a0a0a0;fill-opacity:1" />
    </g>
  </g>
</svg>
