<?xml version="1.0" encoding="UTF-8" standalone="no"?>
<svg
   version="1.1"
   id="Layer_1"
   x="0px"
   y="0px"
   viewBox="0 0 122.88 122.88"
   xml:space="preserve"
   sodipodi:docname="zap.svg"
   width="122.88"
   height="122.88"
   inkscape:version="1.1.2 (0a00cf5339, 2022-02-04)"
   xmlns:inkscape="http://www.inkscape.org/namespaces/inkscape"
   xmlns:sodipodi="http://sodipodi.sourceforge.net/DTD/sodipodi-0.dtd"
   xmlns="http://www.w3.org/2000/svg"
   xmlns:svg="http://www.w3.org/2000/svg"><defs
     id="defs11" /><sodipodi:namedview
     id="namedview9"
     pagecolor="#ffffff"
     bordercolor="#666666"
     borderopacity="1.0"
     inkscape:pageshadow="2"
     inkscape:pageopacity="0.0"
     inkscape:pagecheckerboard="0"
     showgrid="false"
     inkscape:zoom="7.0559371"
     inkscape:cx="61.650209"
     inkscape:cy="50.950001"
     inkscape:window-width="2560"
     inkscape:window-height="1521"
     inkscape:window-x="0"
     inkscape:window-y="0"
     inkscape:window-maximized="1"
     inkscape:current-layer="Layer_1" /><style
     type="text/css"
     id="style2"><![CDATA[
	.st0{fill-rule:evenodd;clip-rule:evenodd;}
]]></style><rect
     style="fill:#ffffff;stroke-width:0.952353"
     id="rect849"
     width="118"
     height="75"
     x="2.4399986"
     y="14.050164" /><g
     id="g6"
     transform="translate(0,10.489999)"><path
       class="st0"
       d="M 3.3399986,0 H 119.54 c 1.84,0 3.34,1.5 3.34,3.34 v 76.98 c 0,1.84 -1.5,3.34 -3.34,3.34 H 3.3399986 c -1.84,0 -3.339999973291,-1.5 -3.339999973291,-3.34 V 3.34 C -1.373291e-6,1.5 1.4999986,0 3.3399986,0 Z M 46.289999,88.27 h 30.3 c 0.08,5.24 2.24,9.94 8.09,13.63 h -46.48 c 4.68,-3.39 8.11,-7.51 8.09,-13.63 z M 7.1599986,4.37 H 115.72 c 1.63,0 2.95,1.33 2.95,2.95 v 65.21 c 0,1.62 -1.33,2.95 -2.95,2.95 H 7.1599986 c -1.62,0 -2.95,-1.33 -2.95,-2.95 V 7.32 c -0.01,-1.62 1.32,-2.95 2.95,-2.95 z"
       id="path4"
       sodipodi:nodetypes="ssssssssscccccssssssscs" /></g><g
     aria-label="ZAP"
     id="text1606"
     style="font-size:48px;line-height:1.25"><path
       d="m 10.475155,33.220695 h 29.414062 v 5.460938 L 21.11578,61.39257 h 19.3125 v 6.820313 H 9.9360924 V 62.751945 L 28.70953,40.041008 H 10.475155 Z"
       style="font-weight:bold;-inkscape-font-specification:'sans-serif Bold'"
       id="path825" /><path
       d="M 68.225155,61.837883 H 54.11578 l -2.226563,6.375 H 42.818905 L 55.779842,33.220695 H 66.537655 L 79.498592,68.212883 H 70.42828 Z M 56.36578,55.345695 h 9.585937 L 61.170467,41.42382 Z"
       style="font-weight:bold;-inkscape-font-specification:'sans-serif Bold'"
       id="path827" /><path
       d="M 84.139217,33.220695 H 99.11578 q 6.67969,0 10.24219,2.976563 3.58593,2.953125 3.58593,8.4375 0,5.507812 -3.58593,8.484375 -3.5625,2.953125 -10.24219,2.953125 h -5.953125 v 12.140625 h -9.023438 z m 9.023438,6.539063 v 9.773437 h 4.992187 q 2.624998,0 4.054688,-1.265625 1.42969,-1.289062 1.42969,-3.632812 0,-2.34375 -1.42969,-3.609375 -1.42969,-1.265625 -4.054688,-1.265625 z"
       style="font-weight:bold;-inkscape-font-specification:'sans-serif Bold'"
       id="path829" /></g></svg>
